# xmcd CD database file
#
# Track frame offsets:
#	154
#	13036
#	20810
#	34294
#	51787
#	74234
#	95960
#	113964
#	128168
#	148358
#	162660
#	186526
#	203336
#	221294
#	238116
#	263179
#	284940
#
# Disc length: 3944 seconds
#
# Revision: 0
# Processed by: cddbd v1.5.2PL0 Copyright (c) Steve Scherf et al.
# Submitted via: CDex 1.51
#
DISCID=200f6611
DTITLE=Various Artist - Jazz 101 CD 5
DYEAR=1900
DGENRE=Jazz
TTITLE0=Always Something There To Remind Me
TTITLE1=All of Me
TTITLE2=Hello, Young Lovers
TTITLE3=It Ain't Gonna Worry My Mind
TTITLE4=Better Than Anything
TTITLE5=If Not Now Then When
TTITLE6=Get Here
TTITLE7=Moonraker
TTITLE8=I Can't Make You Love Me
TTITLE9=Crazy
TTITLE10=Losing My Mind
TTITLE11=Won't Know Till I Get There
TTITLE12=Love Scale
TTITLE13=Wives and Lovers
TTITLE14=Breaking Up The House
TTITLE15=How Long Must I Wander
TTITLE16=Over The Rainbow
EXTD=
EXTT0=
EXTT1=
EXTT2=
EXTT3=
EXTT4=
EXTT5=
EXTT6=
EXTT7=
EXTT8=
EXTT9=
EXTT10=
EXTT11=
EXTT12=
EXTT13=
EXTT14=
EXTT15=
EXTT16=
PLAYORDER=
